<?xml version="1.0" encoding="UTF-8" standalone="no" ?>
<!DOCTYPE svg PUBLIC "-//W3C//DTD SVG 1.1//EN" "http://www.w3.org/Graphics/SVG/1.1/DTD/svg11.dtd">
<svg xmlns="http://www.w3.org/2000/svg" xmlns:xlink="http://www.w3.org/1999/xlink" version="1.1" width="1080" height="1080" viewBox="0 0 1080 1080" xml:space="preserve">
<desc>Created with Fabric.js 5.2.4</desc>
<defs>
</defs>
<rect x="0" y="0" width="100%" height="100%" fill="transparent"></rect>
<g transform="matrix(1 0 0 1 540 540)" id="0a78fc0d-5dc4-418e-a344-000f049bd96f"  >
</g>
<g transform="matrix(1 0 0 1 540 540)" id="172757cd-ebbc-4734-89d6-b4f7a5c55e19"  >
<rect style="stroke: none; stroke-width: 1; stroke-dasharray: none; stroke-linecap: butt; stroke-dashoffset: 0; stroke-linejoin: miter; stroke-miterlimit: 4; fill: rgb(255,255,255); fill-rule: nonzero; opacity: 1; visibility: hidden;" vector-effect="non-scaling-stroke"  x="-540" y="-540" rx="0" ry="0" width="1080" height="1080" />
</g>
<g transform="matrix(2.35 0 0 1.76 539.44 540.15)"  >
<path style="stroke: rgb(0,0,0); stroke-width: 0; stroke-dasharray: none; stroke-linecap: butt; stroke-dashoffset: 0; stroke-linejoin: miter; stroke-miterlimit: 4; fill: rgb(255,97,0); fill-rule: nonzero; opacity: 1;" vector-effect="non-scaling-stroke"  transform=" translate(-306, -306)" d="M 216.02 611.195 C 221.99800000000002 614.373 228.304 607.4910000000001 224.644 601.7950000000001 C 204.77800000000002 570.8760000000001 185.966 518.8480000000001 215.93800000000002 451.8430000000001 C 265.92 340.1060000000001 296.334 282.23400000000004 296.334 282.23400000000004 C 296.334 282.23400000000004 312.511 349.77000000000004 356.363 409.819 C 398.568 467.612 421.669 540.297 384.427 600.848 C 380.932 606.531 387.095 613.236 393.034 610.197 C 439.134 586.615 490.84 539.312 496.674 445.18 C 498.825 416.416 495.599 376.146 479.46799999999996 325.329 C 458.727 260.923 433.229 230.87 418.47599999999994 217.964 C 414.06299999999993 214.103 407.19999999999993 217.525 407.56199999999995 223.377 C 411.86099999999993 292.871 385.717 310.50600000000003 370.83599999999996 270.76300000000003 C 364.893 254.88900000000004 361.42699999999996 227.43300000000005 361.42699999999996 193.997 C 361.42699999999996 138.33200000000002 345.277 81.03000000000002 309.67199999999997 34.46600000000001 C 300.41299999999995 22.357000000000006 289.57899999999995 11.042000000000009 277.14899999999994 1.3930000000000078 C 272.64899999999994 -2.1009999999999924 266.1259999999999 1.4110000000000078 266.53799999999995 7.093000000000008 C 269.27199999999993 44.82900000000001 266.79499999999996 152.978 171.91399999999996 282.182 C 85.88499999999996 402.033 119.22099999999996 494.078 131.04999999999995 519.008 C 153.666 566.767 185.212 594.814 216.02 611.195 z" stroke-linecap="round" />
</g>
<g transform="matrix(-1.55 0 0 1.24 514.49 695.76)"  >
<path style="stroke: rgb(0,0,0); stroke-width: 0; stroke-dasharray: none; stroke-linecap: butt; stroke-dashoffset: 0; stroke-linejoin: miter; stroke-miterlimit: 4; fill: rgb(255,189,0); fill-rule: nonzero; opacity: 1;" vector-effect="non-scaling-stroke"  transform=" translate(-306, -306)" d="M 216.02 611.195 C 221.99800000000002 614.373 228.304 607.4910000000001 224.644 601.7950000000001 C 204.77800000000002 570.8760000000001 185.966 518.8480000000001 215.93800000000002 451.8430000000001 C 265.92 340.1060000000001 296.334 282.23400000000004 296.334 282.23400000000004 C 296.334 282.23400000000004 312.511 349.77000000000004 356.363 409.819 C 398.568 467.612 421.669 540.297 384.427 600.848 C 380.932 606.531 387.095 613.236 393.034 610.197 C 439.134 586.615 490.84 539.312 496.674 445.18 C 498.825 416.416 495.599 376.146 479.46799999999996 325.329 C 458.727 260.923 433.229 230.87 418.47599999999994 217.964 C 414.06299999999993 214.103 407.19999999999993 217.525 407.56199999999995 223.377 C 411.86099999999993 292.871 385.717 310.50600000000003 370.83599999999996 270.76300000000003 C 364.893 254.88900000000004 361.42699999999996 227.43300000000005 361.42699999999996 193.997 C 361.42699999999996 138.33200000000002 345.277 81.03000000000002 309.67199999999997 34.46600000000001 C 300.41299999999995 22.357000000000006 289.57899999999995 11.042000000000009 277.14899999999994 1.3930000000000078 C 272.64899999999994 -2.1009999999999924 266.1259999999999 1.4110000000000078 266.53799999999995 7.093000000000008 C 269.27199999999993 44.82900000000001 266.79499999999996 152.978 171.91399999999996 282.182 C 85.88499999999996 402.033 119.22099999999996 494.078 131.04999999999995 519.008 C 153.666 566.767 185.212 594.814 216.02 611.195 z" stroke-linecap="round" />
</g>
</svg>